<svg width="24" height="24" viewBox="0 0 24 24" fill="none" xmlns="http://www.w3.org/2000/svg">
<path d="M15.5 8.5L19.2279 11.3995C19.7151 11.7784 20 12.3682 20 12.9853C20 14.0899 19.1046 15 18 15H14M8.5 8.5L4.77212 11.3995C4.28495 11.7784 4 12.3682 4 12.9853C4 14.0899 4.89543 15 6 15H10M8 19H11M13 19H16M8.8924 8.23891L11.5107 20.6759C11.6222 21.2053 12.3778 21.2053 12.4893 20.6759L15.1076 8.23891C15.6333 5.74163 14.4081 3.20405 12.1255 2.06275C12.0465 2.02325 11.9535 2.02325 11.8745 2.06275C9.59191 3.20405 8.36666 5.74163 8.8924 8.23891Z" stroke="#06A1A6" stroke-width="2" stroke-linecap="round"/>
</svg>
