<svg width="24" height="24" viewBox="0 0 24 24" fill="none" xmlns="http://www.w3.org/2000/svg">
<path d="M16.6582 15.8953C16.8405 15.8953 17.0153 15.8229 17.1442 15.694C17.2731 15.5651 17.3456 15.3902 17.3456 15.2079C17.3456 15.0256 17.2731 14.8507 17.1442 14.7218C17.0153 14.5929 16.8405 14.5205 16.6582 14.5205H12.7628V9.47945H18.9495C19.05 9.47943 19.1493 9.45738 19.2403 9.41484C19.3314 9.37231 19.412 9.31033 19.4765 9.23328C19.541 9.15622 19.5879 9.06596 19.6137 8.96885C19.6396 8.87174 19.6439 8.77014 19.6262 8.6712C19.6159 8.6128 18.5501 3.04488 12.7628 2.63192V1.91793C12.7628 1.82766 12.745 1.73827 12.7105 1.65487C12.6759 1.57147 12.6253 1.49569 12.5615 1.43185C12.4976 1.36802 12.4219 1.31739 12.3385 1.28284C12.2551 1.24829 12.1657 1.23051 12.0754 1.23051C11.9851 1.23051 11.8957 1.24829 11.8123 1.28284C11.7289 1.31739 11.6532 1.36802 11.5893 1.43185C11.5255 1.49569 11.4749 1.57147 11.4403 1.65487C11.4058 1.73827 11.388 1.82766 11.388 1.91793V2.63192C5.60069 3.04488 4.53494 8.6128 4.5246 8.6712C4.50695 8.77014 4.51121 8.87174 4.53707 8.96885C4.56293 9.06596 4.60976 9.15622 4.67427 9.23328C4.73878 9.31033 4.8194 9.37231 4.91046 9.41484C5.00151 9.45738 5.10078 9.47943 5.20127 9.47945H11.388V14.5205H7.49265C7.31033 14.5205 7.13549 14.5929 7.00657 14.7218C6.87766 14.8507 6.80523 15.0256 6.80523 15.2079C6.80523 15.3902 6.87766 15.5651 7.00657 15.694C7.13549 15.8229 7.31033 15.8953 7.49265 15.8953H11.388V22.082C11.388 22.1723 11.4058 22.2617 11.4403 22.3451C11.4749 22.4285 11.5255 22.5043 11.5893 22.5681C11.6532 22.6319 11.7289 22.6826 11.8123 22.7171C11.8957 22.7517 11.9851 22.7694 12.0754 22.7694C12.1657 22.7694 12.2551 22.7517 12.3385 22.7171C12.4219 22.6826 12.4976 22.6319 12.5615 22.5681C12.6253 22.5043 12.6759 22.4285 12.7105 22.3451C12.745 22.2617 12.7628 22.1723 12.7628 22.082V15.8953H16.6582Z" fill="#3E3E3E" stroke="#3E3E3E" stroke-width="0.4"/>
<path d="M22.5389 13.1952C22.3787 13.1517 22.2079 13.1735 22.0638 13.2558C21.9197 13.3382 21.8142 13.4743 21.7704 13.6344L20.6446 17.7627H16.9503C16.8079 17.7627 16.6697 17.8113 16.5586 17.9004C16.4476 17.9895 16.3702 18.1138 16.3393 18.2529L15.5049 22.0079C15.4689 22.17 15.4988 22.3397 15.5879 22.4797C15.677 22.6197 15.8181 22.7186 15.9802 22.7546C16.1422 22.7906 16.3119 22.7607 16.4519 22.6716C16.592 22.5824 16.6908 22.4413 16.7268 22.2793L17.4523 19.0144H20.6205L21.3461 22.2793C21.3821 22.4413 21.481 22.5824 21.621 22.6716C21.761 22.7607 21.9307 22.7906 22.0927 22.7546C22.2548 22.7186 22.3959 22.6197 22.485 22.4797C22.5742 22.3397 22.604 22.17 22.568 22.0079L21.7671 18.4039L22.9781 13.9636C23.0217 13.8035 23 13.6326 22.9176 13.4885C22.8352 13.3444 22.699 13.2389 22.5389 13.1952Z" fill="#3E3E3E" stroke="#3E3E3E" stroke-width="0.4"/>
<path d="M7.66082 18.2529C7.62995 18.1138 7.55259 17.9895 7.4415 17.9004C7.33042 17.8113 7.19226 17.7627 7.04984 17.7627H3.3555L2.22972 13.6344C2.18606 13.4743 2.08057 13.338 1.93646 13.2557C1.79235 13.1733 1.62142 13.1515 1.46127 13.1952C1.30112 13.2389 1.16487 13.3443 1.0825 13.4885C1.00013 13.6326 0.978379 13.8035 1.02204 13.9636L2.23303 18.4039L1.43213 22.0079C1.41432 22.0882 1.41248 22.1711 1.42672 22.2521C1.44096 22.333 1.47101 22.4103 1.51514 22.4797C1.55928 22.549 1.61664 22.609 1.68394 22.6561C1.75125 22.7033 1.82719 22.7368 1.90743 22.7546C1.98766 22.7724 2.07062 22.7742 2.15156 22.76C2.23251 22.7457 2.30986 22.7157 2.37919 22.6716C2.44852 22.6274 2.50848 22.5701 2.55565 22.5028C2.60281 22.4355 2.63626 22.3595 2.65408 22.2793L3.37964 19.0144H6.54789L7.27333 22.2793C7.30931 22.4413 7.40819 22.5824 7.54822 22.6716C7.68824 22.7607 7.85794 22.7906 8.01998 22.7546C8.18202 22.7186 8.32313 22.6197 8.41226 22.4797C8.5014 22.3397 8.53126 22.17 8.49527 22.0079L7.66082 18.2529Z" fill="#3E3E3E" stroke="#3E3E3E" stroke-width="0.4"/>
</svg>
