<svg width="24" height="24" viewBox="0 0 24 24" fill="none" xmlns="http://www.w3.org/2000/svg">
<path d="M19 6H20C21.1046 6 22 6.89543 22 8V9M5 6H4C2.89543 6 2 6.89543 2 8V9M6 7H18M6 13H18M12 7V13M7 18V19C7 19.5523 7.44772 20 8 20C8.55228 20 9 19.5523 9 19V18M15 18V19C15 19.5523 15.4477 20 16 20C16.5523 20 17 19.5523 17 19V18M8.2 18H15.8C16.9201 18 17.4802 18 17.908 17.782C18.2843 17.5903 18.5903 17.2843 18.782 16.908C19 16.4802 19 15.9201 19 14.8V7.2C19 6.0799 19 5.51984 18.782 5.09202C18.5903 4.71569 18.2843 4.40973 17.908 4.21799C17.4802 4 16.9201 4 15.8 4H8.2C7.07989 4 6.51984 4 6.09202 4.21799C5.71569 4.40973 5.40973 4.71569 5.21799 5.09202C5 5.51984 5 6.07989 5 7.2V14.8C5 15.9201 5 16.4802 5.21799 16.908C5.40973 17.2843 5.71569 17.5903 6.09202 17.782C6.51984 18 7.07989 18 8.2 18Z" stroke="#06A1A6" stroke-width="2" stroke-linecap="round"/>
</svg>
