<svg width="25" height="24" viewBox="0 0 25 24" fill="none" xmlns="http://www.w3.org/2000/svg">
<path d="M8.5 20H19.8C20.9201 20 21.4802 20 21.908 19.782C22.2843 19.5903 22.5903 19.2843 22.782 18.908C23 18.4802 23 17.9201 23 16.8V7.2C23 6.0799 23 5.51984 22.782 5.09202C22.5903 4.71569 22.2843 4.40973 21.908 4.21799C21.4802 4 20.9201 4 19.8 4H6.2C5.07989 4 4.51984 4 4.09202 4.21799C3.71569 4.40973 3.40973 4.71569 3.21799 5.09202C3 5.51984 3 6.07989 3 7.2V12M3 8H23" stroke="#757575" stroke-width="2" stroke-linecap="round"/>
<path d="M9.16671 13.2083L4.44913 17.9259C4.27014 18.1049 3.97994 18.1049 3.80095 17.9259L1.83337 15.9583" stroke="#757575" stroke-width="2" stroke-linecap="round"/>
</svg>
