<svg width="24" height="24" viewBox="0 0 24 24" fill="none" xmlns="http://www.w3.org/2000/svg">
<g clip-path="url(#clip0_446_19882)">
<path fill-rule="evenodd" clip-rule="evenodd" d="M7.7443 0C9.47316 0 10.8748 2.03553 10.8748 4.54658C10.8748 6.44424 10.0741 8.07007 8.93685 8.75128V22.8075C8.93685 23.4634 8.4002 24 7.7443 24C7.0884 24 6.55175 23.4634 6.55175 22.8075V8.75128C5.41446 8.07007 4.61389 6.44424 4.61389 4.54658C4.61389 2.03553 6.01538 0 7.7443 0Z" fill="#757575"/>
<path fill-rule="evenodd" clip-rule="evenodd" d="M15.1848 10.1024L15.1849 22.8001C15.1849 23.414 15.6872 23.9163 16.3011 23.9163C16.9151 23.9163 17.4175 23.414 17.4175 22.8001V10.1023C18.9464 8.74186 19.386 7.64963 19.386 6.92934V0.657279C19.386 0.341757 19.0777 0.0836487 18.7005 0.0836487C18.3604 0.0836487 18.015 0.312248 18.015 0.657279V6.05835H17.0264L16.9867 0.657279C16.9843 0.341813 16.6782 0.0836487 16.3011 0.0836487C15.96 0.0836487 15.6182 0.312691 15.6156 0.657279L15.5759 6.05835H14.5872V0.657279C14.5872 0.341757 14.2788 0.0836487 13.9017 0.0836487C13.5615 0.0836487 13.2162 0.312248 13.2162 0.657279V6.92934C13.2162 7.64957 13.6558 8.74186 15.1848 10.1024Z" fill="#757575"/>
</g>
<defs>
<clipPath id="clip0_446_19882">
<rect width="24" height="24" fill="white"/>
</clipPath>
</defs>
</svg>
