<svg width="24" height="24" viewBox="0 0 24 24" fill="none" xmlns="http://www.w3.org/2000/svg">
<g clip-path="url(#clip0_446_20034)">
<path fill-rule="evenodd" clip-rule="evenodd" d="M7.7443 0C9.47316 0 10.8748 2.03553 10.8748 4.54658C10.8748 6.44424 10.0741 8.07007 8.93685 8.75128V22.8075C8.93685 23.4634 8.4002 24 7.7443 24C7.0884 24 6.55175 23.4634 6.55175 22.8075V8.75128C5.41446 8.07007 4.61389 6.44424 4.61389 4.54658C4.61389 2.03553 6.01538 0 7.7443 0Z" fill="#757575"/>
<path fill-rule="evenodd" clip-rule="evenodd" d="M15.1849 10.1024L15.1849 22.8001C15.1849 23.414 15.6873 23.9163 16.3012 23.9163C16.9152 23.9163 17.4175 23.414 17.4175 22.8001V10.1023C18.9465 8.74186 19.3861 7.64964 19.3861 6.92935V0.657286C19.3861 0.341765 19.0777 0.0836563 18.7006 0.0836563C18.3604 0.0836563 18.0151 0.312256 18.0151 0.657286V6.05835H17.0264L16.9867 0.657286C16.9844 0.34182 16.6783 0.0836563 16.3012 0.0836563C15.9601 0.0836563 15.6182 0.312699 15.6157 0.657286L15.576 6.05835H14.5873V0.657286C14.5873 0.341765 14.2789 0.0836563 13.9018 0.0836563C13.5616 0.0836563 13.2162 0.312256 13.2162 0.657286V6.92935C13.2162 7.64958 13.6559 8.74186 15.1849 10.1024Z" fill="#757575"/>
<path d="M2.99963 2L22.0915 21.0919" stroke="#757575" stroke-width="2" stroke-linecap="round"/>
</g>
<defs>
<clipPath id="clip0_446_20034">
<rect width="24" height="24" fill="white"/>
</clipPath>
</defs>
</svg>
