<svg width="24" height="24" viewBox="0 0 24 24" fill="none" xmlns="http://www.w3.org/2000/svg">
<path d="M5.5 5.635C6.77992 5.635 7.8175 4.59742 7.8175 3.3175C7.8175 2.03758 6.77992 1 5.5 1C4.22008 1 3.1825 2.03758 3.1825 3.3175C3.1825 4.59742 4.22008 5.635 5.5 5.635Z" fill="#3E3E3E"/>
<path d="M12 10.6629C12.8284 10.6629 13.5 9.99128 13.5 9.16286C13.5 8.33443 12.8284 7.66286 12 7.66286C11.1716 7.66286 10.5 8.33443 10.5 9.16286C10.5 9.99128 11.1716 10.6629 12 10.6629Z" fill="#3E3E3E"/>
<path d="M18.5 5.635C19.7799 5.635 20.8175 4.59742 20.8175 3.3175C20.8175 2.03758 19.7799 1 18.5 1C17.2201 1 16.1825 2.03758 16.1825 3.3175C16.1825 4.59742 17.2201 5.635 18.5 5.635Z" fill="#3E3E3E"/>
<path d="M6.66667 6.00235H4.33333C3.74049 5.97134 3.16233 6.24797 2.72515 6.7718C2.28796 7.29564 2.02726 8.02411 2 8.79813V12.7975C2.00927 13.249 2.12687 13.6852 2.3362 14.0447C2.54553 14.4042 2.83602 14.6688 3.16667 14.8011V20.2555C3.14735 20.6879 3.25876 21.1129 3.47694 21.4392C3.69512 21.7654 4.00263 21.9668 4.33333 22H6.66667C6.99737 21.9668 7.30488 21.7654 7.52306 21.4392C7.74124 21.1129 7.85265 20.6879 7.83333 20.2555V14.8011C8.16398 14.6688 8.45447 14.4042 8.6638 14.0447C8.87313 13.6852 8.99073 13.249 9 12.7975V8.79813C8.97274 8.02411 8.71204 7.29564 8.27485 6.7718C7.83767 6.24797 7.25951 5.97134 6.66667 6.00235Z" fill="#3E3E3E"/>
<path d="M12.8333 11.0016H11.1667C10.7432 10.9803 10.3302 11.1705 10.018 11.5306C9.70569 11.8907 9.51947 12.3916 9.5 12.9237V15.6733C9.50662 15.9837 9.59062 16.2836 9.74014 16.5308C9.88966 16.7779 10.0972 16.9598 10.3333 17.0507V20.8007C10.3195 21.0979 10.3991 21.3901 10.555 21.6144C10.7108 21.8387 10.9305 21.9772 11.1667 22H12.8333C13.0695 21.9772 13.2892 21.8387 13.445 21.6144C13.6009 21.3901 13.6805 21.0979 13.6667 20.8007V17.0507C13.9028 16.9598 14.1103 16.7779 14.2599 16.5308C14.4094 16.2836 14.4934 15.9837 14.5 15.6733V12.9237C14.4805 12.3916 14.2943 11.8907 13.982 11.5306C13.6698 11.1705 13.2568 10.9803 12.8333 11.0016Z" fill="#3E3E3E"/>
<path d="M19.6667 6.00235H17.3333C16.7405 5.97134 16.1623 6.24797 15.7251 6.7718C15.288 7.29564 15.0273 8.02411 15 8.79813V12.7975C15.0093 13.249 15.1269 13.6852 15.3362 14.0447C15.5455 14.4042 15.836 14.6688 16.1667 14.8011V20.2555C16.1473 20.6879 16.2588 21.1129 16.4769 21.4392C16.6951 21.7654 17.0026 21.9668 17.3333 22H19.6667C19.9974 21.9668 20.3049 21.7654 20.5231 21.4392C20.7412 21.1129 20.8527 20.6879 20.8333 20.2555V14.8011C21.164 14.6688 21.4545 14.4042 21.6638 14.0447C21.8731 13.6852 21.9907 13.249 22 12.7975V8.79813C21.9727 8.02411 21.712 7.29564 21.2749 6.7718C20.8377 6.24797 20.2595 5.97134 19.6667 6.00235Z" fill="#3E3E3E"/>
</svg>
