<svg width="24" height="24" viewBox="0 0 24 24" fill="none" xmlns="http://www.w3.org/2000/svg">
<path d="M9 20.416V13.416C9 12.8637 9.44772 12.416 10 12.416H14C14.5523 12.416 15 12.8637 15 13.416V20.416M4 18.416V10.857C4 9.65725 4.53851 8.52087 5.46705 7.76116L10.7335 3.45222C11.4703 2.84944 12.5297 2.84944 13.2665 3.45222L18.533 7.76116C19.4615 8.52087 20 9.65725 20 10.857V18.416C20 19.5206 19.1046 20.416 18 20.416H16H8H6C4.89543 20.416 4 19.5206 4 18.416Z" stroke="#181818" stroke-width="2" stroke-linecap="round"/>
</svg>
