<svg width="24" height="24" viewBox="0 0 24 24" fill="none" xmlns="http://www.w3.org/2000/svg">
<path d="M1.65329 20.3998C1.29107 20.3998 1.00647 20.6844 1.00647 21.0466C1.00647 21.4088 1.29107 21.6934 1.65329 21.6934H2.30011V22.3402C2.30011 22.7025 2.58471 22.9871 2.94693 22.9871C3.30915 22.9871 3.59375 22.7025 3.59375 22.3402V21.6934H20.7862L20.5922 21.8875C20.3335 22.1462 20.3335 22.5472 20.5922 22.806C20.8509 23.0647 21.2519 23.0647 21.5107 22.806L22.8043 21.5123C23.0501 21.2665 23.063 20.8526 22.8043 20.5938L21.5107 19.3002C21.2519 19.0415 20.8509 19.0415 20.5922 19.3002C20.3335 19.5589 20.3335 19.9599 20.5922 20.2187L20.7862 20.4127H3.59375V3.2073L3.7878 3.40135C4.04652 3.66008 4.44755 3.66008 4.70628 3.40135C4.96501 3.14262 4.96501 2.74159 4.70628 2.48287L3.41264 1.18923C3.16685 0.943434 2.75288 0.930498 2.49416 1.18923L1.20052 2.48287C0.941788 2.74159 0.941788 3.14262 1.20052 3.40135C1.45924 3.66008 1.86027 3.66008 2.119 3.40135L2.31305 3.2073V20.3998H1.66623H1.65329Z" fill="#3E3E3E"/>
<path d="M12.2223 2.87095L5.17195 7.56687C4.87441 7.76091 4.79679 8.16194 4.99084 8.45948C5.18489 8.75702 5.58591 8.83464 5.88345 8.64059L6.16805 8.44654V16.1825C6.16805 17.0751 6.89249 17.7996 7.7851 17.7996H18.781C19.6737 17.7996 20.3981 17.0751 20.3981 16.1825V8.44654L20.6827 8.64059C20.9802 8.83464 21.3813 8.75702 21.5753 8.45948C21.7693 8.16194 21.6917 7.76091 21.3942 7.56687L14.3439 2.87095C13.697 2.43112 12.8432 2.43112 12.1964 2.87095H12.2223Z" fill="#3E3E3E"/>
</svg>
