<svg width="24" height="24" viewBox="0 0 24 24" fill="none" xmlns="http://www.w3.org/2000/svg">
<path d="M11.5001 5.635C12.78 5.635 13.8176 4.59742 13.8176 3.3175C13.8176 2.03758 12.78 1 11.5001 1C10.2202 1 9.18262 2.03758 9.18262 3.3175C9.18262 4.59742 10.2202 5.635 11.5001 5.635Z" fill="#3E3E3E"/>
<path d="M13 6.3025H10C9.23777 6.27197 8.49443 6.54431 7.93233 7.06004C7.37023 7.57576 7.03505 8.29297 7 9.055V12.9925C7.01192 13.437 7.16312 13.8665 7.43225 14.2204C7.70139 14.5743 8.07488 14.8348 8.5 14.965V20.335C8.47516 20.7607 8.61841 21.1792 8.89892 21.5004C9.17944 21.8216 9.57481 22.0198 10 22.0525H13C13.4252 22.0198 13.8206 21.8216 14.1011 21.5004C14.3816 21.1792 14.5248 20.7607 14.5 20.335V14.965C14.9251 14.8348 15.2986 14.5743 15.5677 14.2204C15.8369 13.8665 15.9881 13.437 16 12.9925V9.055C15.9649 8.29297 15.6298 7.57576 15.0677 7.06004C14.5056 6.54431 13.7622 6.27197 13 6.3025Z" fill="#3E3E3E"/>
</svg>
