<svg width="24" height="24" viewBox="0 0 24 24" fill="none" xmlns="http://www.w3.org/2000/svg">
<path d="M9 7.99999V20M15 3.99999V16M4.64018 4.36681L7.71963 6.93302C8.46132 7.5511 9.53868 7.5511 10.2804 6.93302L13.7196 4.06697C14.4613 3.44889 15.5387 3.44889 16.2804 4.06697L20.2804 7.4003C20.7364 7.78029 21 8.34318 21 8.93674V18.865C21 19.7128 20.0111 20.1759 19.3598 19.6332L16.2804 17.067C15.5387 16.4489 14.4613 16.4489 13.7196 17.067L10.2804 19.933C9.53868 20.5511 8.46132 20.5511 7.71963 19.933L3.71963 16.5997C3.26365 16.2197 3 15.6568 3 15.0632V5.13504C3 4.2872 3.98886 3.82404 4.64018 4.36681Z" stroke="#181818" stroke-width="2" stroke-linecap="round"/>
</svg>
