<svg width="24" height="24" viewBox="0 0 24 24" fill="none" xmlns="http://www.w3.org/2000/svg">
<g clip-path="url(#clip0_492_18471)">
<path d="M3.5625 9.89062H0.703125C0.314484 9.89062 0 10.2051 0 10.5938C0 10.9824 0.314484 11.2969 0.703125 11.2969H3.5625C3.95114 11.2969 4.26562 10.9824 4.26562 10.5938C4.26562 10.2051 3.95114 9.89062 3.5625 9.89062Z" fill="#3E3E3E"/>
<path d="M21.8438 9.89062H19.0312C18.6426 9.89062 18.3281 10.2051 18.3281 10.5938C18.3281 10.9824 18.6426 11.2969 19.0312 11.2969H21.8438C22.2324 11.2969 22.5469 10.9824 22.5469 10.5938C22.5469 10.2051 22.2324 9.89062 21.8438 9.89062Z" fill="#3E3E3E"/>
<path d="M19.2516 2.63897C18.977 2.36433 18.532 2.36433 18.2574 2.63897L16.2688 4.6275C15.9942 4.90214 15.9942 5.34713 16.2688 5.62177C16.5435 5.89641 16.9885 5.89641 17.2631 5.62177L19.2516 3.63324C19.5263 3.3586 19.5263 2.91361 19.2516 2.63897Z" fill="#3E3E3E"/>
<path d="M6.32489 4.6275L4.33635 2.63897C4.06171 2.36433 3.61673 2.36433 3.34209 2.63897C3.06745 2.91361 3.06745 3.3586 3.34209 3.63324L5.33062 5.62177C5.60526 5.89641 6.05025 5.89641 6.32489 5.62177C6.59953 5.34713 6.59953 4.90214 6.32489 4.6275Z" fill="#3E3E3E"/>
<path d="M11.2969 0C10.9082 0 10.5938 0.314484 10.5938 0.703125V3.5625C10.5938 3.95114 10.9082 4.26562 11.2969 4.26562C11.6855 4.26562 12 3.95114 12 3.5625V0.703125C12 0.314484 11.6855 0 11.2969 0Z" fill="#3E3E3E"/>
<path d="M11.1822 14.416C11.1829 14.417 11.1837 14.4178 11.1843 14.4187C11.1589 14.3805 11.1594 14.3813 11.1822 14.416Z" fill="#3E3E3E"/>
<path d="M11.1822 14.416C10.9 14.0111 10.2837 14.0119 10.0031 14.4187L6.92343 19.0593L5.53124 17.2031C5.24999 16.8234 4.68745 16.8234 4.4062 17.2031L0.140572 22.875C-0.0141158 23.0859 -0.0422408 23.3671 0.0702592 23.6062C0.196822 23.8453 0.435884 24 0.703072 24H17.5265C17.4382 23.8672 11.5399 14.9588 11.1822 14.416Z" fill="#3E3E3E"/>
<path d="M11.2969 5.67188C8.1953 5.67188 5.67188 8.1953 5.67188 11.2969C5.67188 12.9597 6.40144 14.4698 7.58967 15.5125L8.83181 13.6411C9.24103 13.0478 9.89475 12.7065 10.5938 12.7065C10.738 12.7065 10.8784 12.7298 11.0169 12.758L13.0513 9.70181C13.4461 9.12023 14.1018 8.77964 14.8125 8.77964C15.5232 8.77964 16.1789 9.12023 16.5662 9.6915L16.7426 9.9563C16.1372 7.50314 13.9342 5.67188 11.2969 5.67188Z" fill="#3E3E3E"/>
<path d="M23.8724 22.903L15.4031 10.4812C15.1359 10.0875 14.4891 10.0875 14.2219 10.4812L12.2225 13.4852C12.5128 13.8363 14.2555 16.5678 19.2145 24H23.2958C23.5489 24 23.7879 23.8593 23.9145 23.6343C24.0411 23.3953 24.0271 23.1281 23.8724 22.903Z" fill="#3E3E3E"/>
</g>
<defs>
<clipPath id="clip0_492_18471">
<rect width="24" height="24" fill="white"/>
</clipPath>
</defs>
</svg>
