<svg width="24" height="24" viewBox="0 0 24 24" fill="none" xmlns="http://www.w3.org/2000/svg">
<g clip-path="url(#clip0_484_5771)">
<path d="M12 0C9.62663 0 7.30655 0.703788 5.33316 2.02236C3.35977 3.34094 1.8217 5.21509 0.913451 7.4078C0.00519943 9.60051 -0.232441 12.0133 0.230582 14.3411C0.693605 16.6689 1.83649 18.8071 3.51472 20.4853C5.19295 22.1635 7.33115 23.3064 9.65892 23.7694C11.9867 24.2324 14.3995 23.9948 16.5922 23.0866C18.7849 22.1783 20.6591 20.6402 21.9776 18.6668C23.2962 16.6935 24 14.3734 24 12C23.9964 8.8185 22.731 5.76833 20.4813 3.51867C18.2317 1.269 15.1815 0.00357316 12 0ZM22 12C22.0021 14.3066 21.2029 16.5423 19.7391 18.325L17.4141 16H19C19.2652 16 19.5196 15.8946 19.7071 15.7071C19.8946 15.5196 20 15.2652 20 15V13C20 12.7348 19.8946 12.4804 19.7071 12.2929C19.5196 12.1054 19.2652 12 19 12H13.4143L5.67501 4.26088C7.13948 3.06196 8.91429 2.30354 10.7929 2.07384C12.6716 1.84414 14.5768 2.1526 16.287 2.96335C17.9972 3.7741 19.4421 5.05379 20.4534 6.65355C21.4648 8.25331 22.0011 10.1074 22 12ZM18 15V13H19V15H18ZM2.00001 12C1.99794 9.69338 2.7971 7.45765 4.26088 5.675L10.5858 12H9.00001V16H14.5858L18.325 19.7391C16.8605 20.938 15.0857 21.6965 13.2071 21.9262C11.3284 22.1559 9.42316 21.8474 7.71297 21.0366C6.00277 20.2259 4.55794 18.9462 3.54657 17.3465C2.53521 15.7467 1.99889 13.8926 2.00001 12Z" fill="#3E3E3E"/>
<path d="M18 15V13H19V15H18Z" fill="#3E3E3E"/>
<path d="M15 8H17C17.2651 8.0003 17.5193 8.10575 17.7068 8.29322C17.8942 8.48069 17.9997 8.73487 18 9C18 9.55228 18.4477 10 19 10C19.5523 10 20 9.55228 20 9C19.9991 8.20462 19.6828 7.44208 19.1203 6.87967C18.5579 6.31725 17.7954 6.00089 17 6H15C14.7349 5.9997 14.4807 5.89425 14.2932 5.70678C14.1058 5.51931 14.0003 5.26513 14 5C14 4.44772 13.5523 4 13 4C12.4477 4 12 4.44772 12 5C12.0009 5.79538 12.3173 6.55792 12.8797 7.12033C13.4421 7.68275 14.2046 7.99911 15 8Z" fill="#3E3E3E"/>
<path d="M4 13V15C4 15.2652 4.10536 15.5196 4.29289 15.7071C4.48043 15.8946 4.73478 16 5 16H8V12H5C4.73478 12 4.48043 12.1054 4.29289 12.2929C4.10536 12.4804 4 12.7348 4 13Z" fill="#3E3E3E"/>
</g>
<defs>
<clipPath id="clip0_484_5771">
<rect width="24" height="24" fill="white"/>
</clipPath>
</defs>
</svg>
