<svg width="24" height="24" viewBox="0 0 24 24" fill="none" xmlns="http://www.w3.org/2000/svg">
<path d="M23.1399 12.3536C22.9153 13.1464 22.4662 13.8335 21.8762 14.2876C21.4051 14.6509 20.8701 14.8409 20.3439 14.8409C20.1458 14.8409 19.952 14.8144 19.7605 14.7603C19.0648 14.5612 18.5012 14.0087 18.215 13.2438C17.9531 12.5466 17.9354 11.7263 18.16 10.9333C18.3868 10.1405 18.8359 9.45337 19.4237 8.9992C20.071 8.50036 20.8415 8.32795 21.5394 8.52656C22.2351 8.72559 22.8009 9.27815 23.0871 10.043C23.3468 10.7403 23.3666 11.5605 23.1399 12.3536ZM8.42024 10.3497C9.24805 10.3497 10.0384 9.88893 10.5888 9.08493C11.0885 8.35598 11.3637 7.40119 11.3637 6.39595C11.3637 5.38983 11.0885 4.43503 10.5888 3.70608C10.0384 2.90231 9.248 2.44148 8.42024 2.44148C7.59022 2.44148 6.79991 2.90226 6.2495 3.70608C5.75197 4.43503 5.47677 5.38983 5.47677 6.39595C5.47677 7.40119 5.75197 8.35598 6.2495 9.08493C6.79991 9.88893 7.59027 10.3497 8.42024 10.3497ZM15.5797 10.3497C16.4098 10.3497 17.2001 9.88893 17.7505 9.08493C18.248 8.35598 18.5232 7.40119 18.5232 6.39595C18.5232 5.38983 18.248 4.43503 17.7505 3.70608C17.2001 2.90231 16.4097 2.44148 15.5797 2.44148C14.7519 2.44148 13.9616 2.90226 13.4112 3.70608C12.9115 4.43503 12.6363 5.38983 12.6363 6.39595C12.6363 7.40119 12.9115 8.35598 13.4112 9.08493C13.9616 9.88893 14.7519 10.3497 15.5797 10.3497ZM5.84 10.9338C5.61327 10.1406 5.16416 9.45347 4.5763 8.99925C3.92905 8.5004 3.15852 8.328 2.46059 8.52661C1.76272 8.72564 1.19909 9.2782 0.912876 10.0431C0.653095 10.7403 0.633313 11.5606 0.860048 12.3536C1.08463 13.1464 1.53374 13.8335 2.1237 14.2877C2.59484 14.6509 3.12983 14.8409 3.656 14.8409C3.85194 14.8409 4.04788 14.8145 4.2372 14.7603C4.93508 14.5613 5.4987 14.0087 5.78488 13.2439C6.04695 12.5467 6.06458 11.7263 5.84 10.9338ZM16.3194 12.867C15.113 11.5989 13.5807 10.901 12 10.901C10.4193 10.901 8.88477 11.5989 7.6827 12.867C6.53347 14.0763 5.73214 15.7544 5.42389 17.5928C5.22795 18.7656 5.58458 19.8944 6.40578 20.6894C7.25998 21.5167 8.37617 21.7679 9.46817 21.3795C10.2762 21.0911 11.1282 20.945 12 20.945C12.8718 20.945 13.7238 21.0912 14.5318 21.3795C14.8686 21.4993 15.2077 21.5585 15.5401 21.5585C16.2864 21.5585 17.002 21.2617 17.5919 20.6894C18.4153 19.8944 18.772 18.7657 18.576 17.5928C18.2678 15.7543 17.4665 14.0763 16.3194 12.867Z" fill="#3E3E3E"/>
</svg>
