<svg width="24" height="24" viewBox="0 0 24 24" fill="none" xmlns="http://www.w3.org/2000/svg">
<path d="M12 0.999908C5.92487 0.999909 1 5.92478 1 11.9999C1 18.075 5.92487 22.9999 12 22.9999C17.3921 22.9999 21.8781 19.1201 22.8186 13.9999M7.35052 21.6246C7.43989 18.7153 8.2809 13.9023 11.4476 15.9931C15.4061 18.6067 14.5696 17.8649 16.7602 17.4166C18.5128 17.058 20.0663 17.9574 20.6239 18.4519M2.46077 16.6909C2.52702 15.1558 3.17531 11.706 5.23843 10.1883C7.81733 8.29108 10.5857 9.5505 8.53373 1.75374M18.3124 5.31248H18.6874M18.3124 5.68748H18.6874M23 5.80001C23 8.45097 19.625 13 18.5 13C17.375 13 14 8.45097 14 5.80001C14 3.14904 16.0147 1.00001 18.5 1.00001C20.9853 1.00001 23 3.14904 23 5.80001ZM19 5.50001C19 5.77615 18.7761 6.00001 18.5 6.00001C18.2238 6.00001 18 5.77615 18 5.50001C18 5.22386 18.2238 5.00001 18.5 5.00001C18.7761 5.00001 19 5.22386 19 5.50001Z" stroke="#06A1A6" stroke-width="2" stroke-linecap="round"/>
</svg>
