<svg width="24" height="24" viewBox="0 0 24 24" fill="none" xmlns="http://www.w3.org/2000/svg">
<path d="M12 21C16.9706 21 21 16.9706 21 12C21 7.02944 16.9706 3 12 3C7.02944 3 3 7.02944 3 12C3 13.4816 3.35801 14.8796 3.99225 16.1122C4.28826 16.6875 4.37943 17.3593 4.15021 17.9642L3.25656 20.3228C3.13262 20.65 3.3743 21 3.72413 21H12Z" stroke="#111111" stroke-width="2" stroke-linecap="round"/>
<path d="M11.5 16.8818V16.9059M9 10.6644C9 9.19291 10.1193 8 11.5 8C12.8807 8 14 9.19291 14 10.6644C14 11.9084 13.2002 12.9532 12.1187 13.2467C11.7842 13.3374 11.5 13.6271 11.5 13.995" stroke="#111111" stroke-width="2" stroke-linecap="round"/>
</svg>
