<svg width="24" height="24" viewBox="0 0 24 24" fill="none" xmlns="http://www.w3.org/2000/svg">
<g clip-path="url(#clip0_1253_25979)">
<path d="M22.1318 6.47094C22.1318 2.91911 19.2558 0 15.6609 0C13.3745 0 11.3325 1.19353 10.1534 3.12043C9.60695 2.97663 9.04613 2.87597 8.47094 2.87597C4.90473 2.87597 2 5.78071 2 9.34691C2 11.4895 3.09287 13.5027 4.87597 14.6962V20.405C4.87597 20.8796 5.06291 21.3397 5.40803 21.6705L7.20551 23.4679C7.55063 23.8131 8.01078 24 8.47094 24C8.9311 24 9.39125 23.8274 9.73637 23.4679L11.3038 21.9005C11.7783 21.426 11.9221 20.7501 11.7352 20.1174H19.9748C21.1684 20.1174 22.1318 19.154 22.1318 17.9605V6.45656V6.47094ZM10.9874 13.6753C10.7717 13.8047 10.6279 14.0348 10.6279 14.2936V14.9263L9.98083 16.2061C9.88017 16.4074 9.88017 16.6519 9.98083 16.8532L10.5416 17.9748L9.98083 19.0965C9.98083 19.0965 9.98083 19.0965 9.98083 19.1108C9.88017 19.3122 9.88017 19.5135 9.98083 19.7148V19.7292L10.3547 20.4769C10.4266 20.6207 10.3978 20.7789 10.2828 20.8939L8.7154 22.4614C8.5716 22.6052 8.34152 22.6052 8.2121 22.4614L6.41462 20.6639C6.41462 20.6639 6.31396 20.5057 6.31396 20.405V14.308C6.31396 14.0491 6.18454 13.8191 5.95446 13.6896C4.37268 12.7693 3.43799 11.1444 3.43799 9.36129C3.43799 6.58598 5.69563 4.32834 8.47094 4.32834C10.3835 4.32834 12.0371 5.42121 12.8856 6.98862C12.1522 7.29059 11.3469 7.42001 10.5416 7.36249C10.2972 6.44218 9.46315 5.76633 8.47094 5.76633C7.27741 5.76633 6.31396 6.72978 6.31396 7.92331C6.31396 9.11684 7.27741 10.0803 8.47094 10.0803C9.34811 10.0803 10.0959 9.56261 10.4266 8.81486C11.3182 8.88676 12.2385 8.84362 13.4032 8.36908C13.4751 8.68544 13.5039 9.03056 13.5039 9.36129C13.5039 11.1588 12.5692 12.7693 10.9874 13.6896V13.6753ZM8.83044 8.51288C8.72978 8.5704 8.61474 8.61354 8.48532 8.61354C8.08268 8.61354 7.76633 8.29718 7.76633 7.89455C7.76633 7.49191 8.08268 7.17555 8.48532 7.17555C8.61474 7.17555 8.72978 7.21869 8.84482 7.27621C8.3559 7.56381 8.38466 8.22528 8.84482 8.4985L8.83044 8.51288ZM15.6896 6.45656C15.6465 5.86699 15.0138 5.60815 14.568 5.92451C14.3667 5.68005 14.2229 5.36369 14.2229 5.01857C14.2229 4.22768 14.87 3.58059 15.6609 3.58059C16.4518 3.58059 17.0989 4.22768 17.0989 5.01857C17.0989 5.80947 16.4661 6.44218 15.6896 6.45656Z" fill="#111111"/>
</g>
<defs>
<clipPath id="clip0_1253_25979">
<rect width="24" height="24" fill="white"/>
</clipPath>
</defs>
</svg>
