<svg width="24" height="24" viewBox="0 0 24 24" fill="none" xmlns="http://www.w3.org/2000/svg">
<path d="M1.65329 20.3998C1.29107 20.3998 1.00647 20.6844 1.00647 21.0466C1.00647 21.4088 1.29107 21.6934 1.65329 21.6934H2.30011V22.3402C2.30011 22.7025 2.58471 22.9871 2.94693 22.9871C3.30915 22.9871 3.59375 22.7025 3.59375 22.3402V21.6934H20.7862L20.5922 21.8875C20.3335 22.1462 20.3335 22.5472 20.5922 22.806C20.8509 23.0647 21.2519 23.0647 21.5107 22.806L22.8043 21.5123C23.0501 21.2665 23.063 20.8526 22.8043 20.5938L21.5107 19.3002C21.2519 19.0415 20.8509 19.0415 20.5922 19.3002C20.3335 19.5589 20.3335 19.9599 20.5922 20.2187L20.7862 20.4127H3.59375V3.2073L3.7878 3.40135C4.04652 3.66008 4.44755 3.66008 4.70628 3.40135C4.96501 3.14262 4.96501 2.74159 4.70628 2.48287L3.41264 1.18923C3.16685 0.943434 2.75288 0.930498 2.49416 1.18923L1.20052 2.48287C0.941788 2.74159 0.941788 3.14262 1.20052 3.40135C1.45924 3.66008 1.86027 3.66008 2.119 3.40135L2.31305 3.2073V20.3998H1.66623H1.65329Z" fill="#3E3E3E"/>
<path d="M16.4293 11.7996C16.5607 11.7996 16.6867 11.7474 16.7796 11.6545C16.8725 11.5616 16.9247 11.4356 16.9247 11.3042C16.9247 11.1728 16.8725 11.0468 16.7796 10.9539C16.6867 10.861 16.5607 10.8088 16.4293 10.8088H13.6219V7.17564H18.0807C18.1531 7.17563 18.2247 7.15973 18.2903 7.12908C18.3559 7.09842 18.414 7.05376 18.4605 6.99822C18.507 6.94268 18.5408 6.87763 18.5594 6.80764C18.5781 6.73765 18.5811 6.66443 18.5684 6.59312C18.5609 6.55103 17.7928 2.53815 13.6219 2.24053V1.72594C13.6219 1.66088 13.609 1.59646 13.5841 1.53635C13.5592 1.47624 13.5228 1.42163 13.4767 1.37562C13.4307 1.32962 13.3761 1.29312 13.316 1.26823C13.2559 1.24333 13.1915 1.23051 13.1264 1.23051C13.0614 1.23051 12.9969 1.24333 12.9368 1.26823C12.8767 1.29312 12.8221 1.32962 12.7761 1.37562C12.7301 1.42163 12.6936 1.47624 12.6687 1.53635C12.6438 1.59646 12.631 1.66088 12.631 1.72594V2.24053C8.46001 2.53815 7.69191 6.55103 7.68446 6.59312C7.67174 6.66443 7.67481 6.73765 7.69344 6.80764C7.71208 6.87763 7.74584 6.94268 7.79233 6.99822C7.83882 7.05376 7.89693 7.09842 7.96255 7.12908C8.02817 7.15973 8.09972 7.17563 8.17214 7.17564H12.631V10.8088H9.82357C9.69218 10.8088 9.56616 10.861 9.47325 10.9539C9.38034 11.0468 9.32814 11.1728 9.32814 11.3042C9.32814 11.4356 9.38034 11.5616 9.47325 11.6545C9.56616 11.7474 9.69218 11.7996 9.82357 11.7996H12.631V16.2585C12.631 16.3236 12.6438 16.388 12.6687 16.4481C12.6936 16.5082 12.7301 16.5628 12.7761 16.6088C12.8221 16.6548 12.8767 16.6913 12.9368 16.7162C12.9969 16.7411 13.0614 16.7539 13.1264 16.7539C13.1915 16.7539 13.2559 16.7411 13.316 16.7162C13.3761 16.6913 13.4307 16.6548 13.4767 16.6088C13.5228 16.5628 13.5592 16.5082 13.5841 16.4481C13.609 16.388 13.6219 16.3236 13.6219 16.2585V11.7996H16.4293Z" fill="#3E3E3E" stroke="#3E3E3E" stroke-width="0.4"/>
<path d="M20.6676 9.85363C20.5522 9.82225 20.4291 9.83796 20.3252 9.89731C20.2214 9.95667 20.1453 10.0548 20.1138 10.1702L19.3024 13.1455H16.6399C16.5372 13.1455 16.4377 13.1805 16.3576 13.2447C16.2775 13.3089 16.2218 13.3986 16.1995 13.4988L15.5981 16.2051C15.5722 16.3219 15.5937 16.4442 15.658 16.5451C15.7222 16.646 15.8239 16.7173 15.9407 16.7432C16.0575 16.7691 16.1798 16.7476 16.2807 16.6834C16.3816 16.6191 16.4529 16.5174 16.4788 16.4007L17.0017 14.0476H19.2851L19.808 16.4007C19.8339 16.5174 19.9052 16.6191 20.0061 16.6834C20.107 16.7476 20.2293 16.7691 20.3461 16.7432C20.4629 16.7173 20.5646 16.646 20.6288 16.5451C20.6931 16.4442 20.7146 16.3219 20.6886 16.2051L20.1114 13.6076L20.9842 10.4075C21.0156 10.292 21 10.1689 20.9406 10.065C20.8812 9.96114 20.783 9.88511 20.6676 9.85363Z" fill="#3E3E3E" stroke="#3E3E3E" stroke-width="0.4"/>
<path d="M9.94483 13.4988C9.92259 13.3986 9.86683 13.3089 9.78677 13.2447C9.70671 13.1805 9.60714 13.1455 9.5045 13.1455H6.84193L6.03056 10.1702C5.9991 10.0548 5.92307 9.95657 5.81921 9.8972C5.71534 9.83784 5.59215 9.82216 5.47673 9.85363C5.36131 9.88509 5.26311 9.96112 5.20375 10.065C5.14438 10.1688 5.1287 10.292 5.16017 10.4075L6.03295 13.6076L5.45573 16.2051C5.44289 16.2629 5.44156 16.3227 5.45183 16.381C5.46209 16.4394 5.48375 16.4951 5.51556 16.5451C5.54737 16.5951 5.58871 16.6383 5.63722 16.6723C5.68573 16.7063 5.74046 16.7304 5.79828 16.7432C5.85611 16.756 5.9159 16.7574 5.97423 16.7471C6.03257 16.7368 6.08832 16.7152 6.13829 16.6834C6.18826 16.6516 6.23147 16.6102 6.26546 16.5617C6.29946 16.5132 6.32356 16.4585 6.33641 16.4007L6.85933 14.0476H9.14273L9.66556 16.4007C9.6915 16.5175 9.76276 16.6192 9.86368 16.6834C9.9646 16.7476 10.0869 16.7692 10.2037 16.7432C10.3205 16.7173 10.4222 16.646 10.4864 16.5451C10.5507 16.4442 10.5722 16.3219 10.5462 16.2051L9.94483 13.4988Z" fill="#3E3E3E" stroke="#3E3E3E" stroke-width="0.4"/>
</svg>
