<svg width="24" height="24" viewBox="0 0 24 24" fill="none" xmlns="http://www.w3.org/2000/svg">
<path d="M10 7H14M10 11H14M6 13V5C6 3.89543 6.89543 3 8 3H16C17.1046 3 18 3.89543 18 5V13M3 15V19C3 20.1046 3.89543 21 5 21H19C20.1046 21 21 20.1046 21 19V15C21 13.8954 20.1046 13 19 13H16.5C16.2239 13 16.0031 13.2247 15.969 13.4988C15.7431 15.3194 14.2917 17 12 17C10.1663 17 8.33266 15.3188 8.04035 13.4978C7.99658 13.2252 7.77614 13 7.5 13H5C3.89543 13 3 13.8954 3 15Z" stroke="#757575" stroke-width="2" stroke-linecap="round"/>
</svg>
