<svg width="24" height="24" viewBox="0 0 24 24" fill="none" xmlns="http://www.w3.org/2000/svg">
<path d="M12 11.75C14.6234 11.75 16.75 9.62335 16.75 7C16.75 4.37665 14.6234 2.25 12 2.25C9.37665 2.25 7.25 4.37665 7.25 7C7.25 9.62335 9.37665 11.75 12 11.75Z" fill="#181818"/>
<path d="M20.47 17.32L20.34 17C19.9031 15.9024 19.152 14.9582 18.1807 14.2858C17.2094 13.6133 16.0612 13.2426 14.88 13.22H9.13002C7.94888 13.2426 6.80069 13.6133 5.82939 14.2858C4.85809 14.9582 4.1069 15.9024 3.67002 17L3.53002 17.31C3.31194 17.8105 3.22066 18.3571 3.26427 18.9013C3.30788 19.4455 3.48502 19.9706 3.78002 20.43C4.02023 20.8223 4.35668 21.1467 4.75745 21.3725C5.15823 21.5982 5.61004 21.7179 6.07002 21.72H17.92C18.3813 21.7177 18.8345 21.598 19.2368 21.3724C19.6392 21.1467 19.9775 20.8224 20.22 20.43C20.5125 19.9714 20.6882 19.4482 20.7318 18.9061C20.7754 18.364 20.6855 17.8194 20.47 17.32Z" fill="#181818"/>
</svg>
