<svg width="24" height="24" viewBox="0 0 24 24" fill="none" xmlns="http://www.w3.org/2000/svg">
<path d="M7.99328 5.635C9.2732 5.635 10.3108 4.59742 10.3108 3.3175C10.3108 2.03758 9.2732 1 7.99328 1C6.71336 1 5.67578 2.03758 5.67578 3.3175C5.67578 4.59742 6.71336 5.635 7.99328 5.635Z" fill="#3E3E3E"/>
<path d="M16.0065 5.635C17.2864 5.635 18.324 4.59742 18.324 3.3175C18.324 2.03758 17.2864 1 16.0065 1C14.7265 1 13.689 2.03758 13.689 3.3175C13.689 4.59742 14.7265 5.635 16.0065 5.635Z" fill="#3E3E3E"/>
<path d="M9.15983 6.00235H6.8265C6.23365 5.97134 5.6555 6.24797 5.21831 6.7718C4.78112 7.29564 4.52043 8.02411 4.49316 8.79813V12.7975C4.50243 13.249 4.62003 13.6852 4.82936 14.0447C5.03869 14.4042 5.32918 14.6688 5.65983 14.8011V20.2555C5.64051 20.6879 5.75193 21.1129 5.97011 21.4392C6.18828 21.7654 6.4958 21.9668 6.8265 22H9.15983C9.49053 21.9668 9.79804 21.7654 10.0162 21.4392C10.2344 21.1129 10.3458 20.6879 10.3265 20.2555V14.8011C10.6571 14.6688 10.9476 14.4042 11.157 14.0447C11.3663 13.6852 11.4839 13.249 11.4932 12.7975V8.79813C11.4659 8.02411 11.2052 7.29564 10.768 6.7718C10.3308 6.24797 9.75268 5.97134 9.15983 6.00235Z" fill="#3E3E3E"/>
<path d="M17.1733 6.00235H14.8399C14.2471 5.97134 13.6689 6.24797 13.2317 6.7718C12.7946 7.29564 12.5339 8.02411 12.5066 8.79813V12.7975C12.5159 13.249 12.6335 13.6852 12.8428 14.0447C13.0521 14.4042 13.3426 14.6688 13.6733 14.8011V20.2555C13.6539 20.6879 13.7654 21.1129 13.9835 21.4392C14.2017 21.7654 14.5092 21.9668 14.8399 22H17.1733C17.504 21.9668 17.8115 21.7654 18.0297 21.4392C18.2478 21.1129 18.3592 20.6879 18.3399 20.2555V14.8011C18.6706 14.6688 18.9611 14.4042 19.1704 14.0447C19.3797 13.6852 19.4973 13.249 19.5066 12.7975V8.79813C19.4793 8.02411 19.2186 7.29564 18.7814 6.7718C18.3443 6.24797 17.7661 5.97134 17.1733 6.00235Z" fill="#3E3E3E"/>
</svg>
